<svg width="180" height="80" viewBox="0 0 180 80" xmlns="http://www.w3.org/2000/svg">
  <rect width="180" height="80" rx="12" fill="white"/>
  <path d="M20 30C20 19 29 10 40 10H66V26H40C37 26 35 28 35 31C35 34 37 36 40 36H52C63 36 72 45 72 56C72 67 63 76 52 76H24V60H52C55 60 57 58 57 55C57 52 55 50 52 50H40C29 50 20 41 20 30Z" fill="#050607"/>
  <path d="M54 24C54 15 62 8 71 8H92V24H71C69 24 68 25 68 27C68 29 69 30 71 30H81C91 30 99 38 99 48C99 58 91 66 81 66H58V50H81C83 50 84 49 84 47C84 45 83 44 81 44H71C62 44 54 37 54 28V24Z" fill="#E82424"/>
</svg>
